<svg width="221" height="86" viewBox="0 0 221 86" fill="none" xmlns="http://www.w3.org/2000/svg">
<path d="M35.3467 42.6067L34.8881 43.3705L35.7789 43.3641L70.6246 43.1132L53.3816 71.5H18.1689L0.585014 42.5516L18.1689 13.6035H52.7605L35.3467 42.6067Z" fill="#3F3D56" stroke="#48BB78"/>
<path d="M74.64 40.1936L74.6724 40.1391L57.3191 11H57.3005L39.9655 40.4483L74.64 40.1936Z" fill="#48BB78"/>
<path d="M115.665 56H110.577L98.4331 39.632L94.9291 42.704V56H90.6091V21.728H94.9291V38.624C95.8891 37.536 96.8651 36.448 97.8571 35.36C98.8491 34.272 99.8411 33.184 100.833 32.096L110.097 21.728H115.137L101.553 36.656L115.665 56ZM142.12 43.088C142.12 47.344 141.032 50.64 138.856 52.976C136.712 55.312 133.8 56.48 130.12 56.48C127.848 56.48 125.816 55.968 124.024 54.944C122.264 53.888 120.872 52.368 119.848 50.384C118.824 48.368 118.312 45.936 118.312 43.088C118.312 38.832 119.384 35.552 121.528 33.248C123.672 30.944 126.584 29.792 130.264 29.792C132.6 29.792 134.648 30.32 136.408 31.376C138.2 32.4 139.592 33.904 140.584 35.888C141.608 37.84 142.12 40.24 142.12 43.088ZM122.68 43.088C122.68 46.128 123.272 48.544 124.456 50.336C125.672 52.096 127.592 52.976 130.216 52.976C132.808 52.976 134.712 52.096 135.928 50.336C137.144 48.544 137.752 46.128 137.752 43.088C137.752 40.048 137.144 37.664 135.928 35.936C134.712 34.208 132.792 33.344 130.168 33.344C127.544 33.344 125.64 34.208 124.456 35.936C123.272 37.664 122.68 40.048 122.68 43.088ZM165.566 48.896C165.566 51.392 164.638 53.28 162.782 54.56C160.926 55.84 158.43 56.48 155.294 56.48C153.502 56.48 151.95 56.336 150.638 56.048C149.358 55.76 148.222 55.36 147.23 54.848V51.008C148.254 51.52 149.486 52 150.926 52.448C152.398 52.864 153.886 53.072 155.39 53.072C157.534 53.072 159.086 52.736 160.046 52.064C161.006 51.36 161.486 50.432 161.486 49.28C161.486 48.64 161.31 48.064 160.958 47.552C160.606 47.04 159.966 46.528 159.038 46.016C158.142 45.504 156.846 44.928 155.15 44.288C153.486 43.648 152.062 43.008 150.878 42.368C149.694 41.728 148.782 40.96 148.142 40.064C147.502 39.168 147.182 38.016 147.182 36.608C147.182 34.432 148.062 32.752 149.822 31.568C151.614 30.384 153.95 29.792 156.83 29.792C158.398 29.792 159.854 29.952 161.198 30.272C162.574 30.56 163.854 30.976 165.038 31.52L163.598 34.88C162.51 34.432 161.374 34.048 160.19 33.728C159.006 33.408 157.79 33.248 156.542 33.248C154.814 33.248 153.486 33.536 152.558 34.112C151.662 34.656 151.214 35.408 151.214 36.368C151.214 37.072 151.422 37.68 151.838 38.192C152.254 38.672 152.942 39.152 153.902 39.632C154.894 40.08 156.206 40.624 157.838 41.264C159.47 41.872 160.862 42.496 162.014 43.136C163.166 43.776 164.046 44.56 164.654 45.488C165.262 46.384 165.566 47.52 165.566 48.896ZM180.375 53.024C181.015 53.024 181.671 52.976 182.343 52.88C183.015 52.752 183.559 52.624 183.975 52.496V55.712C183.527 55.936 182.887 56.112 182.055 56.24C181.223 56.4 180.423 56.48 179.655 56.48C178.311 56.48 177.063 56.256 175.911 55.808C174.791 55.328 173.879 54.512 173.175 53.36C172.471 52.208 172.119 50.592 172.119 48.512V33.536H168.471V31.52L172.167 29.84L173.847 24.368H176.343V30.272H183.783V33.536H176.343V48.416C176.343 49.984 176.711 51.152 177.447 51.92C178.215 52.656 179.191 53.024 180.375 53.024Z" fill="#FCFCFC"/>
</svg>
